<svg xmlns="http://www.w3.org/2000/svg" viewBox="0 0 500 500"><g id="freepik--background-complete--inject-8"><polygon points="388.77 376.25 365.46 477.49 375.32 477.47 398.69 377.21 388.77 376.25" style="fill:#93C5FD"></polygon><polygon points="431.31 376.25 454.71 477.49 464.08 477.49 441.44 376.25 431.31 376.25" style="fill:#93C5FD"></polygon><polygon points="373.04 300.22 386.31 369.92 401.4 369.92 387.22 300.22 373.04 300.22" style="fill:#93C5FD"></polygon><polygon points="141.81 376.25 122.79 477.49 132.47 477.49 152.34 376.25 141.81 376.25" style="fill:#93C5FD"></polygon><polygon points="181.8 376.25 203.54 476.94 213.1 476.94 192.11 376.25 181.8 376.25" style="fill:#93C5FD"></polygon><polygon points="126.07 300.22 139.34 369.92 154.43 369.92 140.25 300.22 126.07 300.22" style="fill:#93C5FD"></polygon><polygon points="96.2 293.88 98.91 306.56 401.85 306.56 398.31 293.88 96.2 293.88" style="fill:#93C5FD"></polygon><polygon points="101.99 318.49 105.18 331.17 406.07 331.17 403.34 318.49 101.99 318.49" style="fill:#93C5FD"></polygon><polygon points="107.96 343.97 110.94 356.64 410.9 356.64 408.06 343.97 107.96 343.97" style="fill:#93C5FD"></polygon><rect x="130.9" y="369.92" width="323.45" height="12.67" style="fill:#93C5FD"></rect><path d="M397.82,81.69c.59-4.28-5.45-7.8-10-8.16-2.17-.18-4.41.15-6.46-.56-4.44-1.55-6.22-7.28-10.55-9.11-3.24-1.37-7-.15-10.11,1.43s-6.24,3.57-9.75,3.79c-3.05.2-6.36-.93-9,.56-2,1.11-3,3.4-4.87,4.75s-4.13,1.61-6.36,1.73-4.53.14-6.55,1.07-3.71,3.07-3.29,5.26Z" style="fill:#fafafa"></path><path d="M477.38,139.52c.78-5.7-7.27-10.4-13.33-10.89-2.88-.23-5.88.21-8.62-.74-5.92-2.07-8.29-9.72-14.07-12.16-4.32-1.82-9.3-.2-13.49,1.91s-8.33,4.76-13,5.06c-4.07.26-8.5-1.25-12.06.74-2.65,1.48-4.05,4.54-6.49,6.35s-5.52,2.14-8.49,2.3-6.05.19-8.75,1.43-4.94,4.1-4.38,7Z" style="fill:#93C5FD"></path><path d="M208.37,57.17c.44-3.22-4.1-5.87-7.51-6.14-1.63-.13-3.32.12-4.86-.42-3.34-1.17-4.67-5.48-7.93-6.85-2.44-1-5.24-.12-7.6,1.07s-4.7,2.69-7.34,2.85c-2.29.15-4.79-.7-6.79.42-1.5.84-2.28,2.56-3.66,3.58a8.78,8.78,0,0,1-4.79,1.3,13.43,13.43,0,0,0-4.93.8c-1.52.7-2.79,2.31-2.47,4Z" style="fill:#93C5FD"></path><path d="M402,221.64c.44-3.22-4.1-5.86-7.51-6.14-1.63-.13-3.32.12-4.86-.42-3.34-1.16-4.68-5.48-7.93-6.85-2.44-1-5.25-.11-7.61,1.08s-4.69,2.68-7.33,2.85c-2.3.15-4.79-.71-6.8.42-1.5.83-2.28,2.56-3.66,3.57a8.68,8.68,0,0,1-4.78,1.3,13.37,13.37,0,0,0-4.93.81c-1.53.69-2.79,2.31-2.47,4Z" style="fill:#f5f5f5"></path></g><g id="freepik--Floor--inject-8"><path d="M467,477.49c0,.15-97.17.26-217,.26s-217-.11-217-.26,97.15-.26,217-.26S467,477.35,467,477.49Z" style="fill:#263238"></path></g><g id="freepik--Characters--inject-8"><polygon points="251.3 128.26 290.21 127.74 280.09 142.43 251.3 143.19 251.3 128.26" style="fill:#263238"></polygon><polyline points="212.16 81.44 231.91 84.99 252.5 78.81 255.25 93.78 233.01 97.33 211.47 91.03" style="fill:#ffbe9d"></polyline><path d="M324.44,79l-15.08,5.42-25.25-8-2.75,15,24,5.2a12.37,12.37,0,0,0,9-1.49l10.75-6.46" style="fill:#ffbe9d"></path><path d="M252.81,128.72s5.67-54.28,5.67-54.28L265.74,73l18.31,1.46,6.43,3.82,3.26,17,.55,30.37-13.69,4.22a13.36,13.36,0,0,1-4.07.58l-14.61-.22Z" style="fill:#93C5FD"></path><polygon points="293.74 95.27 300.85 96.8 305.21 83.06 290.27 76.02 284.24 74.53 293.74 95.27" style="fill:#93C5FD"></polygon><polygon points="258.48 74.44 244.19 80 249.12 96.95 257.89 95.06 258.48 74.44" style="fill:#93C5FD"></polygon><path d="M284.24,72.56v-.14c5.71-.74,8.33-6.25,8.71-12.83a81.57,81.57,0,0,0,.11-11.35A59.23,59.23,0,0,0,291.15,35a16.14,16.14,0,0,0-13.37-5.14c-8.74.64-13.26,12.36-13.26,12.36s.06,17.83.58,21.43a30.08,30.08,0,0,1,.44,4.89l.2,4.4A9.26,9.26,0,0,0,275,81.79h0A9.25,9.25,0,0,0,284.24,72.56Z" style="fill:#ffbe9d"></path><path d="M265,53.44c-.16-.07-6.13-1.86-6,4.25s6.25,4.71,6.26,4.53S265,53.44,265,53.44Z" style="fill:#ffbe9d"></path><path d="M263.32,60s-.11.08-.29.16a1,1,0,0,1-.79,0A2.62,2.62,0,0,1,261,57.81a3.48,3.48,0,0,1,.26-1.53,1.26,1.26,0,0,1,.78-.84.55.55,0,0,1,.64.28c.08.17.05.29.08.3s.13-.1.07-.35a.59.59,0,0,0-.25-.38.77.77,0,0,0-.59-.14,1.51,1.51,0,0,0-1.09,1,3.68,3.68,0,0,0-.33,1.72,2.77,2.77,0,0,0,1.62,2.6,1.14,1.14,0,0,0,1-.19C263.31,60.1,263.34,60,263.32,60Z" style="fill:#eb996e"></path><path d="M287.25,53.92A1.34,1.34,0,0,1,286,55.26,1.28,1.28,0,0,1,284.59,54a1.33,1.33,0,0,1,1.3-1.33A1.28,1.28,0,0,1,287.25,53.92Z" style="fill:#263238"></path><path d="M289.28,51.94c-.17.18-1.17-.58-2.6-.59s-2.49.71-2.65.53.1-.39.56-.72a3.62,3.62,0,0,1,2.11-.64,3.52,3.52,0,0,1,2.07.69C289.21,51.55,289.36,51.87,289.28,51.94Z" style="fill:#263238"></path><path d="M273.68,54.48a1.33,1.33,0,0,1-1.29,1.33A1.28,1.28,0,0,1,271,54.6a1.34,1.34,0,0,1,1.29-1.34A1.28,1.28,0,0,1,273.68,54.48Z" style="fill:#263238"></path><path d="M275.19,52.11c-.16.17-1.17-.59-2.6-.59s-2.49.7-2.64.52.09-.39.55-.72a3.68,3.68,0,0,1,2.12-.63,3.5,3.5,0,0,1,2.07.68C275.13,51.71,275.27,52,275.19,52.11Z" style="fill:#263238"></path><path d="M274.06,47c-.07.31-.94.34-1.89.65s-1.69.73-1.92.52-.05-.38.22-.71a3.1,3.1,0,0,1,3-.92C273.89,46.68,274.09,46.88,274.06,47Z" style="fill:#263238"></path><path d="M288.39,46.87c-.13.28-.62.32-1.09.1s-.74-.63-.61-.9.62-.32,1.09-.1S288.52,46.59,288.39,46.87Z" style="fill:#263238"></path><path d="M279,62.55c0,.08-.17.23-.55.28a2,2,0,0,1-2.18-1.65c-.06-.38,0-.61.12-.61s.33.81,1,1.34S278.92,62.37,279,62.55Z" style="fill:#263238"></path><path d="M284.24,72.42s-7.33.12-9.06-1.15c0,0,1.11,3.52,8.87,3.15Z" style="fill:#eb996e"></path><path d="M262.59,53.16a5.21,5.21,0,0,0,0,2.45,1.78,1.78,0,0,0,1.84,1.33c1.06-.2,1.42-1.5,1.55-2.56.37-3,.59-6,.68-9,0-.84.2-1.9,1-2.1a3,3,0,0,1,1.43.28,2.67,2.67,0,0,0,2.66-.85c.1,1.14,1.66,1.66,2.7,1.17a5.42,5.42,0,0,0,2.21-2.57,4.5,4.5,0,0,0,.15,1.9,1.55,1.55,0,0,0,1.42,1.09c.75,0,1.25-.74,1.6-1.4a17.85,17.85,0,0,0,1.74-5.06A10.58,10.58,0,0,0,286,44.58l.78-2.3a4.27,4.27,0,0,0,1.07,1.24,1.53,1.53,0,0,0,1.55.21,1,1,0,0,0,.36-1.39,1.71,1.71,0,0,0,2.49,1,2.29,2.29,0,0,0,.81-2.77c-.31,5-.84,10.71.11,15.63,1.45-2.55,3.79-5.89,3.92-8.82.09-2.1-.53-4.19-.4-6.29.09-1.44.53-2.84.53-4.28a7.75,7.75,0,0,0-2.61-5.68,9.19,9.19,0,0,0-5.88-2.25,38.81,38.81,0,0,1-4.82.06c-1.36-.2-2.61-.8-3.94-1.13a10,10,0,0,0-8.08,1.5A28,28,0,0,0,265.61,35s-6.26.19-6,9,.9,9.86.9,9.86Z" style="fill:#263238"></path><path d="M266,36.15s-.11-.4-.44-1a3.9,3.9,0,0,0-1.85-1.65,4,4,0,0,0-2.48-.16,9,9,0,0,0-1,.37s.07-.09.23-.19a3.09,3.09,0,0,1,.72-.33,3.73,3.73,0,0,1,4.52,1.89,3.31,3.31,0,0,1,.27.75C266.05,36,266.06,36.15,266,36.15Z" style="fill:#263238"></path><path d="M266.82,36s-.11,0-.27-.19a4,4,0,0,1-.6-.65,5,5,0,0,1-.3-5.55,3.7,3.7,0,0,1,.53-.71c.14-.15.23-.22.24-.21s-.29.36-.63,1a5.12,5.12,0,0,0,.29,5.38C266.49,35.64,266.85,35.94,266.82,36Z" style="fill:#263238"></path><path d="M281.74,55c.08,0,.25.3.46.83.1.26.21.58.32.93l.17.56a3.58,3.58,0,0,1,.15.69,1.15,1.15,0,0,1-.29.82,1.19,1.19,0,0,1-.69.34,1.44,1.44,0,0,1-.66,0,2.06,2.06,0,0,1-.47-.25c-.49-.4-.63-.72-.58-.78s.36.15.82.37a1.14,1.14,0,0,0,.77.11.62.62,0,0,0,.33-.18.47.47,0,0,0,.1-.35,2.07,2.07,0,0,0-.11-.54l-.13-.57c-.08-.37-.14-.7-.19-1C281.66,55.4,281.65,55,281.74,55Z" style="fill:#263238"></path><path d="M262.77,45.41a1.21,1.21,0,0,1-.08-.43c0-.28-.08-.68-.12-1.18a13.1,13.1,0,0,1,.21-3.93,6.64,6.64,0,0,1,1.92-3.42,4.18,4.18,0,0,1,1-.68,1.18,1.18,0,0,1,.41-.16,7.78,7.78,0,0,0-1.3,1A7,7,0,0,0,263,39.92a15.25,15.25,0,0,0-.26,3.87A15.19,15.19,0,0,1,262.77,45.41Z" style="fill:#455a64"></path><path d="M268.06,43.14a3.65,3.65,0,0,1-.72-.88A8.21,8.21,0,0,1,266.07,37a3.71,3.71,0,0,1,.24-1.11,10.62,10.62,0,0,1-.08,1.12,9.25,9.25,0,0,0,.25,2.67,9.52,9.52,0,0,0,1,2.5C267.82,42.78,268.09,43.12,268.06,43.14Z" style="fill:#455a64"></path><path d="M281.27,37.73a.85.85,0,0,1,0-.21l0-.6a17.94,17.94,0,0,0-.17-2.2,6.59,6.59,0,0,0-1.18-3,4.28,4.28,0,0,0-1.45-1.2,5.76,5.76,0,0,0-1.95-.54,7.73,7.73,0,0,0-3.86.7,10.09,10.09,0,0,0-1.49.88,9.48,9.48,0,0,0-1.13,1,7.8,7.8,0,0,0-1.28,1.77c-.25.46-.35.73-.37.72s0-.07.06-.2a5.19,5.19,0,0,1,.23-.56,7.45,7.45,0,0,1,1.25-1.84,8.87,8.87,0,0,1,1.13-1,9.62,9.62,0,0,1,1.51-.92,7.81,7.81,0,0,1,4-.74,5.73,5.73,0,0,1,2,.57A4.45,4.45,0,0,1,280,31.62a6.5,6.5,0,0,1,1.17,3.08,13.35,13.35,0,0,1,.1,2.22c0,.26,0,.46,0,.6S281.28,37.73,281.27,37.73Z" style="fill:#455a64"></path><path d="M288.29,39.08a.8.8,0,0,1-.07-.21c0-.17-.08-.37-.14-.61-.12-.53-.28-1.3-.55-2.23a13.1,13.1,0,0,0-1.29-3.12,7,7,0,0,0-3-2.77,9.09,9.09,0,0,0-4-.83,16.53,16.53,0,0,0-3.36.42c-1,.21-1.71.42-2.23.56l-.61.16a.87.87,0,0,1-.21,0l.2-.08.59-.2c.52-.16,1.27-.4,2.22-.63a15.92,15.92,0,0,1,3.39-.47,9.09,9.09,0,0,1,4.11.83,7.1,7.1,0,0,1,3,2.86A12.64,12.64,0,0,1,287.68,36c.25.94.39,1.71.49,2.25.05.27.08.48.1.62A1.73,1.73,0,0,1,288.29,39.08Z" style="fill:#455a64"></path><path d="M291.73,40.23s0-.68.13-1.76a9.35,9.35,0,0,0-.45-4.16,4.67,4.67,0,0,0-1.29-1.87,4,4,0,0,0-1.65-.84,4,4,0,0,0-1.73,0l.11-.06.34-.11a3.26,3.26,0,0,1,1.31,0,4.07,4.07,0,0,1,1.75.84,4.82,4.82,0,0,1,1.36,1.95,8.9,8.9,0,0,1,.41,4.25c-.06.55-.13,1-.18,1.28A2.71,2.71,0,0,1,291.73,40.23Z" style="fill:#455a64"></path><path d="M272.06,58.51c-.06,0-.08-.15-.05-.31s.11-.29.17-.28.08.15.05.32S272.12,58.53,272.06,58.51Z" style="fill:#eb996e"></path><path d="M274.62,58c-.06,0-.13,0-.17-.14s0-.2.05-.22.13.05.16.15S274.68,58,274.62,58Z" style="fill:#eb996e"></path><path d="M273.32,59.53c-.06,0-.12-.13-.14-.29s0-.3.08-.31.13.12.14.29S273.38,59.52,273.32,59.53Z" style="fill:#eb996e"></path><path d="M270.1,59.23c-.06,0-.07-.17,0-.33s.14-.28.2-.27.06.17,0,.33S270.16,59.25,270.1,59.23Z" style="fill:#eb996e"></path><path d="M287.11,57.92c-.06,0-.12-.11-.13-.26s0-.27.08-.28.12.11.14.26S287.18,57.91,287.11,57.92Z" style="fill:#eb996e"></path><path d="M289.51,57.86c-.06,0-.11-.13-.11-.3s.05-.3.11-.3.11.14.11.3S289.57,57.86,289.51,57.86Z" style="fill:#eb996e"></path><path d="M291.49,57.74c-.06,0-.14-.11-.17-.28s0-.31.05-.32.13.11.16.28S291.55,57.73,291.49,57.74Z" style="fill:#eb996e"></path><path d="M288.38,59.88c-.06,0-.07-.16,0-.33s.14-.28.19-.26.07.16,0,.33S288.43,59.9,288.38,59.88Z" style="fill:#eb996e"></path><path d="M290.63,59.59c-.06,0-.13-.1-.14-.23s0-.24.08-.25.12.09.14.23S290.69,59.58,290.63,59.59Z" style="fill:#eb996e"></path><path d="M288.93,105.8a7.13,7.13,0,0,1-.47,1.21,13.21,13.21,0,0,1-.68,1.37,19.6,19.6,0,0,1-1,1.75,23,23,0,0,1-1.42,2c-.52.72-1.17,1.41-1.83,2.15a32.42,32.42,0,0,1-4.91,4.21,33.23,33.23,0,0,1-5.7,3.06c-.94.35-1.81.7-2.67.93a22.39,22.39,0,0,1-2.39.59,18,18,0,0,1-2,.33,12,12,0,0,1-1.52.14,6.35,6.35,0,0,1-1.31,0c0-.11,1.86-.16,4.75-.83a22.11,22.11,0,0,0,2.34-.65c.84-.24,1.7-.6,2.61-.95a34.11,34.11,0,0,0,5.59-3.05,35.1,35.1,0,0,0,4.87-4.11c.66-.72,1.31-1.39,1.83-2.09a23.19,23.19,0,0,0,1.45-1.94C288.12,107.47,288.83,105.75,288.93,105.8Z" style="fill:#263238"></path><path d="M290.81,94s-.23-.13-.57-.47A11.17,11.17,0,0,1,289,92a13.15,13.15,0,0,1-1.13-12.78,10.74,10.74,0,0,1,1-1.76c.28-.39.46-.59.48-.57s-.51.91-1.11,2.47a13.95,13.95,0,0,0,1.1,12.44C290.14,93.2,290.88,94,290.81,94Z" style="fill:#263238"></path><path d="M257.13,82.12a101.36,101.36,0,0,1-.72,10.17,99.24,99.24,0,0,1-1.23,10.12,101.36,101.36,0,0,1,.72-10.17A99.24,99.24,0,0,1,257.13,82.12Z" style="fill:#263238"></path><g style="opacity:0.30000000000000004"><path d="M287.19,87.38c-1.2-4,.79,8.39,1.92,12.45,1,3.55,2.27,7.19,5,9.69l-.35-14.25S289.75,96,287.19,87.38Z"></path></g><g style="opacity:0.30000000000000004"><path d="M285.59,111.76a3.36,3.36,0,0,0-2.95,1c-.81.71-1.45,1.6-2.29,2.27-1.71,1.34-4,1.6-6.17,1.71s-4.43.15-6.35,1.16-3.34,3.37-2.5,5.37a26.74,26.74,0,0,0,13.31-5.09C284.34,114.06,285.59,111.76,285.59,111.76Z"></path></g><path d="M309.42,85.67c.14,0-.06.85-.32,1.82s-.49,1.75-.64,1.73-.13-.87.14-1.87S309.29,85.61,309.42,85.67Z" style="fill:#eb996e"></path><path d="M205.52,99.27l-8.94,41.25,38.31,5.5-6,29.33-42-12.86a16.39,16.39,0,0,1-12.33-21.4l16.49-43.56Z" style="fill:#ffbe9d"></path><path d="M192.94,78.54a4,4,0,0,0-.43,3s-2,1.1.12,2.61a1.36,1.36,0,0,0,.5,2.16,1.63,1.63,0,0,0,.73,2.53c1.89.92,7.26,1.12,7.26,1.12l5.32-1.07,1.91-2,.51-2.17-5.34-5L196,77.43A2.65,2.65,0,0,0,192.94,78.54Z" style="fill:#ffbe9d"></path><path d="M205.05,83.78l-2.72-.8a20.9,20.9,0,0,0-2.17-3.66c-.76-.75-4.15-1.46-3.56-4.42l8.44,3a5.5,5.5,0,0,1,3.39,6.85h0Z" style="fill:#ffbe9d"></path><path d="M196.6,74.9a7.4,7.4,0,0,0,.48,1.66A4.28,4.28,0,0,0,198.16,78a13.2,13.2,0,0,0,2,1.1,9,9,0,0,0,1.56.57l.19,0v.19a7.2,7.2,0,0,0,.64,2.93,7.93,7.93,0,0,1,.52,1.11s-.39-.28-.8-1a6.48,6.48,0,0,1-.86-3.06l.19.24a8.62,8.62,0,0,1-1.65-.59,11,11,0,0,1-2.1-1.21,4.2,4.2,0,0,1-1.11-1.67A2.31,2.31,0,0,1,196.6,74.9Z" style="fill:#eb996e"></path><path d="M192.44,83.81a7.62,7.62,0,0,1,2,.34c.62.13,1.35.33,2.14.48a5.53,5.53,0,0,0,1.23.09c.41,0,.8-.19.87-.49s-.24-.57-.62-.74a11.39,11.39,0,0,0-1.18-.45l-2.09-.67a8.39,8.39,0,0,1-1.91-.71,7.47,7.47,0,0,1,2,.35c.61.15,1.33.33,2.13.57a11.37,11.37,0,0,1,1.26.45,2,2,0,0,1,.65.44,1,1,0,0,1,.26.88,1.34,1.34,0,0,1-1.35.88,5.34,5.34,0,0,1-1.35-.13c-.84-.18-1.54-.42-2.14-.59A7.91,7.91,0,0,1,192.44,83.81Z" style="fill:#eb996e"></path><path d="M193,86.23a4.05,4.05,0,0,1,1.35.18,11.79,11.79,0,0,0,3.12.36c.25,0,.41-.19.41-.33s-.15-.34-.35-.49a7,7,0,0,0-1.21-.72c-.74-.33-1.25-.43-1.23-.51a2.33,2.33,0,0,1,1.36.17,5.39,5.39,0,0,1,1.36.68,1.11,1.11,0,0,1,.58.88.93.93,0,0,1-.83.84,6.11,6.11,0,0,1-1.87-.14c-.55-.12-1-.26-1.43-.38C193.47,86.51,193,86.3,193,86.23Z" style="fill:#eb996e"></path><path d="M195.06,82.17a6.88,6.88,0,0,1,1.65.35,4.57,4.57,0,0,0,1.71.21c.3-.06.49-.2.53-.48a1.23,1.23,0,0,0-.3-.86,11.15,11.15,0,0,0-3.82-1.8l-.22-.06.11-.17a4.11,4.11,0,0,1,.74-.76c.18-.15.25-.24.28-.23s0,.15-.14.35a6.58,6.58,0,0,0-.58.78l-.11-.23A8.82,8.82,0,0,1,199,81.05a1.62,1.62,0,0,1,.43,1.28,1,1,0,0,1-.36.63,1.27,1.27,0,0,1-.6.24,4.27,4.27,0,0,1-1.89-.33A4.53,4.53,0,0,1,195.06,82.17Z" style="fill:#eb996e"></path><path d="M205.47,99.46l5.7-6.62L212.69,83,210.61,78a1.55,1.55,0,0,0-1.89,1.6c0,1.9,0,5.56,0,5.56l-2.25,3.74-5.77,1-7.11-1.09-2.48,8.94,2.18,1.53Z" style="fill:#ffbe9d"></path><path d="M191.08,97.72a2.52,2.52,0,0,1,.12-.63c.11-.47.26-1.06.44-1.79l1.74-6.57.05-.16.16,0,7.11,1h-.07l5.76-1-.17.12L208.47,85l0,.13V80.92a11.27,11.27,0,0,1,0-1.4,2,2,0,0,1,.76-1.29,2.81,2.81,0,0,1,1.36-.52l.18,0,.07.18c.72,1.75,1.41,3.45,2.07,5.07l0,.06v.07c-.6,3.69-1.13,7-1.57,9.8v0l0,0-4.23,4.79L205.9,99a2.78,2.78,0,0,1-.43.42,2.47,2.47,0,0,1,.35-.49l1.1-1.35,4.11-4.9,0,.09c.42-2.8.91-6.12,1.46-9.82v.13c-.67-1.61-1.36-3.3-2.09-5.06l.26.16A1.75,1.75,0,0,0,209,79.6c0,.37,0,.85,0,1.31V85.2l0,.07L206.65,89l-.06.1h-.11l-5.77,1h-.08L193.54,89l.21-.13c-.79,2.7-1.44,4.92-1.9,6.52-.23.73-.41,1.31-.55,1.77A2.72,2.72,0,0,1,191.08,97.72Z" style="fill:#eb996e"></path><path d="M197.39,92.77a10.31,10.31,0,0,1,8.9-3.71,27.36,27.36,0,0,0-4.71,1.23A28,28,0,0,0,197.39,92.77Z" style="fill:#eb996e"></path><path d="M343.62,75.88a4,4,0,0,1,.42,3s2,1.1-.12,2.61a1.36,1.36,0,0,1-.49,2.16,1.63,1.63,0,0,1-.74,2.53c-1.89.91-7.26,1.12-7.26,1.12l-5.31-1.08-1.91-2-1-2.38L333,77.07l7.53-2.3A2.67,2.67,0,0,1,343.62,75.88Z" style="fill:#ffbe9d"></path><path d="M331.5,81.12l2.72-.8a20.9,20.9,0,0,1,2.17-3.66c.76-.75,4.15-1.46,3.57-4.42l-8.45,3a5.51,5.51,0,0,0-3.39,6.85h0Z" style="fill:#ffbe9d"></path><path d="M340,72.24a2.31,2.31,0,0,1-.14,1.8,4.46,4.46,0,0,1-1.11,1.67,11.29,11.29,0,0,1-2.1,1.21,8.23,8.23,0,0,1-1.66.58l.19-.24a6.41,6.41,0,0,1-.86,3.07c-.4.68-.76,1-.79,1s.2-.41.51-1.1a7.24,7.24,0,0,0,.64-2.93v-.19l.19,0a9.89,9.89,0,0,0,1.56-.57,14.6,14.6,0,0,0,2-1.1,4.35,4.35,0,0,0,1.09-1.46A8.16,8.16,0,0,0,340,72.24Z" style="fill:#eb996e"></path><path d="M344.12,81.14a8.12,8.12,0,0,1-1.92.7c-.6.18-1.3.41-2.13.6a5.85,5.85,0,0,1-1.35.12,1.33,1.33,0,0,1-1.35-.87,1,1,0,0,1,.26-.89,2.37,2.37,0,0,1,.64-.44,10,10,0,0,1,1.26-.44c.8-.24,1.53-.42,2.14-.57a7.42,7.42,0,0,1,2-.35,9,9,0,0,1-1.91.7l-2.09.68c-.39.13-.81.27-1.19.44s-.7.47-.62.75a.85.85,0,0,0,.87.48A5.11,5.11,0,0,0,340,82c.79-.14,1.52-.34,2.13-.47A7.94,7.94,0,0,1,344.12,81.14Z" style="fill:#eb996e"></path><path d="M343.54,83.56c0,.07-.45.29-1.25.54a12.56,12.56,0,0,1-1.43.38,5.59,5.59,0,0,1-1.87.14.93.93,0,0,1-.84-.83,1.17,1.17,0,0,1,.58-.89,5.49,5.49,0,0,1,1.36-.67c.82-.27,1.36-.24,1.37-.17a10.75,10.75,0,0,1-1.24.51,6.72,6.72,0,0,0-1.21.72c-.19.14-.37.35-.35.49s.16.29.42.33a12.22,12.22,0,0,0,3.12-.36A3.87,3.87,0,0,1,343.54,83.56Z" style="fill:#eb996e"></path><path d="M341.5,79.5a4.67,4.67,0,0,1-1.55.71,4.33,4.33,0,0,1-1.9.32,1.21,1.21,0,0,1-.6-.24,1,1,0,0,1-.35-.62,1.68,1.68,0,0,1,.42-1.29,9.08,9.08,0,0,1,4.12-1.78l-.11.24a8,8,0,0,0-.57-.78c-.15-.2-.17-.34-.15-.35s.11.08.28.23a3.44,3.44,0,0,1,.74.75l.11.17-.22.07a10.93,10.93,0,0,0-3.81,1.8,1.18,1.18,0,0,0-.31.86c0,.28.23.41.54.47a4.71,4.71,0,0,0,1.7-.2A7.31,7.31,0,0,1,341.5,79.5Z" style="fill:#eb996e"></path><path d="M322.66,140.12s-6.48,23.61,7.55,28.82c0,0,5.32-1.05,4.69-6.09-.5-4-11.72-22.39-11.72-22.39" style="fill:#93C5FD"></path><path d="M322.66,140.12s-6.48,23.61,7.55,28.82c0,0,5.32-1.05,4.69-6.09-.5-4-11.72-22.39-11.72-22.39" style="opacity:0.30000000000000004"></path><path d="M331.09,96.8,340,138.05l-38.31,5.5,6,29.33,42-12.86A16.4,16.4,0,0,0,362,138.62L345.48,95.06Z" style="fill:#ffbe9d"></path><path d="M342.5,146.61a13.2,13.2,0,0,1-2.05-4.32,13.58,13.58,0,0,1-.9-4.7c.15,0,.58,2,1.4,4.54S342.64,146.54,342.5,146.61Z" style="fill:#eb996e"></path><path d="M331.09,96.8l-5.71-6.63-1.51-9.8L326,75.3a1.54,1.54,0,0,1,1.88,1.61c0,1.9,0,5.56,0,5.56l2.26,3.73,5.76,1,7.11-1.1,2.49,9-2.18,1.53Z" style="fill:#ffbe9d"></path><path d="M345.48,95.06a2.61,2.61,0,0,1-.23-.61l-.54-1.76-1.9-6.53.21.14-7.1,1.14h-.08l-5.77-1-.11,0-.06-.1-2.26-3.73,0-.06v-4.3c0-.45,0-.93,0-1.3a1.76,1.76,0,0,0-1.65-1.38l.25-.16-2.09,5.06,0-.13c.55,3.69,1,7,1.45,9.82l0-.1,4.11,4.9,1.1,1.35a3.22,3.22,0,0,1,.36.5,2.47,2.47,0,0,1-.44-.43l-1.17-1.28-4.24-4.8,0,0V90.2c-.45-2.79-1-6.11-1.57-9.8v-.06l0-.07,2.07-5.07.07-.18.19,0a2.81,2.81,0,0,1,1.35.52,1.94,1.94,0,0,1,.77,1.28,13.61,13.61,0,0,1,0,1.41v4.2l0-.13,2.25,3.74-.17-.12,5.76,1h-.07l7.11-1,.17,0,0,.16c.72,2.73,1.31,5,1.74,6.57.18.74.33,1.33.45,1.8A4.51,4.51,0,0,1,345.48,95.06Z" style="fill:#eb996e"></path><path d="M339.17,90.11a17.27,17.27,0,0,0-8.91-3.71,8.46,8.46,0,0,1,4.92.74A8.56,8.56,0,0,1,339.17,90.11Z" style="fill:#eb996e"></path><path d="M255.61,445.61l.86,20.37s-20.42,7.73-20.63,11.51l39.58-.26-.05-31.81Z" style="fill:#93C5FD"></path><g style="opacity:0.6000000000000001"><path d="M268.7,464.19a1.61,1.61,0,0,1,1.13,1.84,1.55,1.55,0,0,1-1.81,1.13,1.7,1.7,0,0,1-1.19-2,1.61,1.61,0,0,1,2-1" style="fill:#fff"></path></g><g style="opacity:0.6000000000000001"><path d="M275.42,477.23l-.13-3.2-37.9,1.44s-1.75.78-1.55,2Z" style="fill:#fff"></path></g><path d="M255.83,465.79c0,.19,1,.27,1.93.89s1.47,1.42,1.64,1.34-.11-1.19-1.28-1.91S255.79,465.61,255.83,465.79Z" style="fill:#263238"></path><path d="M251.69,467.53c0,.19.8.51,1.46,1.33s.86,1.67,1,1.66.31-1.1-.54-2.1S251.69,467.35,251.69,467.53Z" style="fill:#263238"></path><path d="M249.37,472.52c.17,0,.43-.93-.07-2s-1.41-1.47-1.49-1.31.48.73.88,1.6S249.17,472.5,249.37,472.52Z" style="fill:#263238"></path><path d="M256.15,461.12c.08.18,1-.09,2.06,0s1.94.41,2,.24-.72-.85-2-.91S256.05,461,256.15,461.12Z" style="fill:#263238"></path><g style="opacity:0.30000000000000004"><polygon points="255.78 449.64 255.93 453.27 275.38 452.97 275.39 448.78 255.78 449.64"></polygon></g><path d="M256.05,457a3.73,3.73,0,0,0,2,0,8.83,8.83,0,0,0,2.07-.65,8.93,8.93,0,0,0,1.13-.61,2.41,2.41,0,0,0,.6-.47.85.85,0,0,0,.08-1,1,1,0,0,0-.85-.43,2.65,2.65,0,0,0-.74.1,6.62,6.62,0,0,0-1.23.44,6.78,6.78,0,0,0-1.82,1.21c-.91.85-1.22,1.58-1.15,1.61s.53-.54,1.46-1.25a7.77,7.77,0,0,1,1.76-1,7.47,7.47,0,0,1,1.13-.35c.42-.12.78-.12.89.06s0,.1-.05.23a2.07,2.07,0,0,1-.43.34,9.36,9.36,0,0,1-1.05.6,10.26,10.26,0,0,1-1.91.75A12,12,0,0,0,256.05,457Z" style="fill:#263238"></path><path d="M256.3,457.28a3.11,3.11,0,0,0,.51-1.92,6.45,6.45,0,0,0-.28-2.16A6.55,6.55,0,0,0,256,452a1.69,1.69,0,0,0-1.28-1,.93.93,0,0,0-.82.56,2.87,2.87,0,0,0-.2.73,4.29,4.29,0,0,0,0,1.34,4.55,4.55,0,0,0,.86,2c.78,1,1.59,1.24,1.6,1.18s-.61-.47-1.21-1.45a4.59,4.59,0,0,1-.64-1.86,4.39,4.39,0,0,1,0-1.14c.06-.42.22-.76.38-.72s.53.31.69.64a6.82,6.82,0,0,1,.5,1.07,7.24,7.24,0,0,1,.4,2C256.4,456.53,256.2,457.25,256.3,457.28Z" style="fill:#263238"></path><path d="M327.61,445l-.37,20.39s20.6,7.23,20.9,11l-39.57.7-.72-31.8Z" style="fill:#93C5FD"></path><g style="opacity:0.6000000000000001"><path d="M315,463.91a1.62,1.62,0,0,0-1.08,1.87,1.55,1.55,0,0,0,1.84,1.09,1.7,1.7,0,0,0,1.13-2,1.61,1.61,0,0,0-2-.93" style="fill:#fff"></path></g><g style="opacity:0.6000000000000001"><path d="M308.57,477.11l.05-3.21,37.92.53s1.78.74,1.6,2Z" style="fill:#fff"></path></g><path d="M327.88,465.2c0,.19-1,.3-1.91.93s-1.43,1.46-1.61,1.39.09-1.2,1.24-1.95S327.91,465,327.88,465.2Z" style="fill:#263238"></path><path d="M332.06,466.84c0,.19-.79.53-1.43,1.36s-.82,1.7-1,1.69-.33-1.1.49-2.11S332.05,466.66,332.06,466.84Z" style="fill:#263238"></path><path d="M334.5,471.77c-.17,0-.46-.92,0-2s1.37-1.5,1.46-1.34-.47.73-.85,1.62S334.69,471.74,334.5,471.77Z" style="fill:#263238"></path><path d="M327.44,460.54c-.07.18-1-.07-2.05,0s-1.94.45-2,.29.7-.87,2-1S327.54,460.39,327.44,460.54Z" style="fill:#263238"></path><g style="opacity:0.30000000000000004"><polygon points="327.53 449.06 327.47 452.69 308.02 452.86 307.91 448.66 327.53 449.06"></polygon></g><path d="M327.44,456.42a3.62,3.62,0,0,1-2,0,9,9,0,0,1-2.08-.6,8.86,8.86,0,0,1-1.15-.58,2.57,2.57,0,0,1-.61-.46.83.83,0,0,1-.1-1,1.05,1.05,0,0,1,.83-.45,2.41,2.41,0,0,1,.75.09,6.67,6.67,0,0,1,1.24.4,7.17,7.17,0,0,1,1.85,1.16c.93.84,1.26,1.55,1.19,1.59s-.54-.53-1.49-1.21a7.36,7.36,0,0,0-2.93-1.3c-.42-.1-.78-.1-.88.09s0,.1.05.22a1.86,1.86,0,0,0,.44.33,8.6,8.6,0,0,0,1.06.58,10.44,10.44,0,0,0,1.93.7A14.69,14.69,0,0,1,327.44,456.42Z" style="fill:#263238"></path><path d="M327.2,456.71a3.13,3.13,0,0,1-.56-1.91,6.64,6.64,0,0,1,.23-2.17,7.23,7.23,0,0,1,.49-1.22,1.62,1.62,0,0,1,1.24-1,.94.94,0,0,1,.84.54,2.54,2.54,0,0,1,.22.72,4.32,4.32,0,0,1,0,1.34,4.55,4.55,0,0,1-.81,2.06c-.75,1-1.56,1.28-1.57,1.22s.6-.48,1.17-1.48a4.68,4.68,0,0,0,.6-1.87,4.08,4.08,0,0,0-.06-1.15c-.07-.42-.23-.75-.39-.71s-.53.33-.68.67a6,6,0,0,0-.47,1.08,6.68,6.68,0,0,0-.35,2C327.08,456,327.3,456.67,327.2,456.71Z" style="fill:#263238"></path><polygon points="300.72 250.68 334.52 463.04 305.46 463.04 268.71 278 280.41 464.39 248.55 463.04 230.41 248.76 300.72 250.68" style="fill:#263238"></polygon><path d="M330.21,168.94s-3-.74-5.2-7.44c-3.91-12-2.35-21.38-2.35-21.38l-21,1.92-25.8.39s-1.42,10.23-12.83,9.77-11-8.5-11-8.5l-10.32-.47L211.15,142s-2.07.05-1.87,5.62,2.89,25.22,2.89,25.22l16.17,5.59.53,7.75s-2.29,62-2.14,67.9l74-3.44c-.75-1-1.1-46.78-.94-63.75a12.86,12.86,0,0,1,9-12.14l12.56-3.94Z" style="fill:#93C5FD"></path><path d="M226.73,254.12s7.7,7,25.75,7.09c20.36.11,24.84-8.37,33.7-8.54a43.52,43.52,0,0,1,15.28,2.7l-1.14-9.9-32.19-5.07Z" style="fill:#93C5FD"></path><path d="M295.32,248.71c0,.06-.8-.41-2.32-.93a18.63,18.63,0,0,0-6.7-.91,31.55,31.55,0,0,0-9.82,2.11c-3.58,1.3-7.35,3.19-11.46,4.84a42.87,42.87,0,0,1-12.1,3,42,42,0,0,1-10.18-.23,38.47,38.47,0,0,1-6.69-1.56c-.77-.24-1.36-.48-1.75-.64a5.07,5.07,0,0,1-.6-.26s.86.26,2.41.7a44.06,44.06,0,0,0,16.77,1.52,43.91,43.91,0,0,0,11.95-3c4.08-1.63,7.86-3.51,11.48-4.8a30.77,30.77,0,0,1,10-2,17.76,17.76,0,0,1,6.78,1.08,11.52,11.52,0,0,1,1.7.78A3.54,3.54,0,0,1,295.32,248.71Z" style="fill:#263238"></path><path d="M283.21,207.78a8.54,8.54,0,0,1,.06,1.39,12,12,0,0,1-.06,1.63,21.2,21.2,0,0,1-.24,2.14,21.69,21.69,0,0,1-.52,2.57,29.61,29.61,0,0,1-.85,2.89,31.64,31.64,0,0,1-7.29,11.6c-.77.73-1.48,1.44-2.23,2a21.49,21.49,0,0,1-2.09,1.57c-.65.48-1.29.82-1.83,1.15a10.87,10.87,0,0,1-1.44.76,8.17,8.17,0,0,1-1.28.55c-.05-.11,1.76-.91,4.33-2.76a23.49,23.49,0,0,0,2-1.6c.73-.59,1.42-1.3,2.17-2a35.62,35.62,0,0,0,4.18-5.34,36,36,0,0,0,3-6.09c.33-1,.68-1.92.89-2.82s.42-1.75.57-2.53C283.16,209.76,283.09,207.78,283.21,207.78Z" style="fill:#263238"></path><g style="opacity:0.30000000000000004"><path d="M225,177.32c3.86,1.22,8.83-6,11.66-11.23,1.93-3.55,9.6-5.62,12.86-8s4.45-7.6,8-9.6a13.74,13.74,0,0,0,2.76-1.72,3,3,0,0,0,1-2.93c-.55-1.76-2.93-2-4.77-1.83a105.66,105.66,0,0,0-20.71,3.89"></path></g><g style="opacity:0.30000000000000004"><path d="M314.65,171.87c3.88-8.43-1.51-21.83-3.79-30.82l-6.81.66L302.35,170Z"></path></g><path d="M247.5,199.92a100.9,100.9,0,0,1-.44-10.33,102.23,102.23,0,0,1,.07-10.33,99,99,0,0,1,.45,10.32C247.68,195.29,247.64,199.91,247.5,199.92Z" style="fill:#fafafa"></path><path d="M251.54,199.91c-.15,0,0-4.79.36-10.67s.74-10.66.89-10.65,0,4.79-.37,10.68S251.68,199.92,251.54,199.91Z" style="fill:#fafafa"></path><path d="M255.32,201c-.14,0,.13-4.91.6-10.94s1-10.92,1.13-10.91-.13,4.91-.61,11S255.46,201,255.32,201Z" style="fill:#fafafa"></path><path d="M261.29,201.52c-.15,0-.36-5.16-.47-11.53s-.09-11.53.06-11.53.35,5.16.46,11.53S261.43,201.51,261.29,201.52Z" style="fill:#fafafa"></path><path d="M264.67,201.25c-.15,0,.52-5.06,1.48-11.24s1.86-11.17,2-11.15-.52,5-1.49,11.23S264.81,201.27,264.67,201.25Z" style="fill:#fafafa"></path><path d="M271.52,202.05a18.42,18.42,0,0,1-.22-3.29c-.05-2,0-4.85.17-7.95s.51-5.91.81-7.92a18,18,0,0,1,.63-3.24,25.86,25.86,0,0,1-.26,3.29c-.21,2-.47,4.81-.66,7.9s-.27,5.89-.32,7.92A23.28,23.28,0,0,1,271.52,202.05Z" style="fill:#fafafa"></path><path d="M278.27,200.72c-.14,0-.22-4.9-.18-10.93s.2-10.93.35-10.93.22,4.89.17,10.93S278.42,200.72,278.27,200.72Z" style="fill:#fafafa"></path><path d="M283,199.91a15.3,15.3,0,0,1-.54-2.85c-.26-1.78-.55-4.24-.76-7s-.31-5.2-.33-7a14.76,14.76,0,0,1,.1-2.91,17.67,17.67,0,0,1,.27,2.89c.13,1.95.3,4.34.48,7s.43,5,.6,7A15.93,15.93,0,0,1,283,199.91Z" style="fill:#fafafa"></path><g style="opacity:0.30000000000000004"><path d="M279.1,247.78a15.58,15.58,0,0,0-6.57,1.52,50.54,50.54,0,0,1-29.34,4,6.18,6.18,0,0,0-3.11,0,2,2,0,0,0-1.34,2.46,40.76,40.76,0,0,0,23.52-1.23c14.71-5.23,11.91-5.79,17.14-6.79Z"></path></g><path d="M274.85,226.26a4.65,4.65,0,0,1-.84.88,31.48,31.48,0,0,1-2.55,2.13,40.72,40.72,0,0,1-20.19,8,28.64,28.64,0,0,1-3.32.18,4.86,4.86,0,0,1-1.22-.06c0-.09,1.73-.11,4.49-.49a44.59,44.59,0,0,0,20-7.93C273.51,227.36,274.79,226.19,274.85,226.26Z" style="fill:#263238"></path><g style="opacity:0.30000000000000004"><path d="M276,222.54c-3,3.86-6.41,8-11.21,8.79a25.5,25.5,0,0,1-6.58-.25,11.71,11.71,0,0,0-6.46.77c-2,1-3.38,3.34-2.71,5.43,0,0,11.22-.41,19.9-6.55C276.14,225.65,276,222.54,276,222.54Z"></path></g><path d="M267.18,85.24c-1-3.54-3.62-5.28-7.09-6.46a11.4,11.4,0,0,0-10.42,1.69c-1.95,1.48-3.48,3.64-5.8,4.45-3.81,1.32-8.28-1.53-11.93.18A5.2,5.2,0,0,0,234.4,95c-2.49.91-3.26,4.46-1.81,6.68s4.44,3,7,2.56a14.56,14.56,0,0,0,6.84-3.83c2-1.78,3.74-3.78,5.84-5.39a11.38,11.38,0,0,1,7.3-2.68c3.59.19,6.66,2.89,8.25,6.1s2,6.88,2.17,10.47.26,7.22,1.32,10.64c.13.4.32.85.72,1,.58.18,1.07-.44,1.36-1a52.61,52.61,0,0,0,6-19.56c.4-4,.3-7.73-1.88-11.07s-7.7-5.8-10.4-3.69" style="fill:#263238"></path><path d="M274.1,101.86,275.93,142c0,2.81,0,10.74-11.45,10.74h0c-9.39-.71-12.77-3.41-12.55-11.87a11.93,11.93,0,0,0-.19-3.65s-10.27-.5-11.47-10.59c-.58-4.87-1-15-1.19-24.19A18.93,18.93,0,0,1,256,83.18l1-.1C267.55,82.57,273.89,91.27,274.1,101.86Z" style="fill:#ffbe9d"></path><path d="M251.71,137.1A23.63,23.63,0,0,0,264.48,132s-2.34,7.6-12.51,7.76Z" style="fill:#eb996e"></path><path d="M244.2,107.3a1.44,1.44,0,0,0,1.54,1.3,1.38,1.38,0,0,0,1.35-1.46,1.44,1.44,0,0,0-1.54-1.3A1.38,1.38,0,0,0,244.2,107.3Z" style="fill:#263238"></path><path d="M241.78,107.2c.2.17,1.21-.76,2.76-.92s2.77.5,2.92.29-.14-.42-.68-.72a4,4,0,0,0-2.36-.47,3.79,3.79,0,0,0-2.17,1C241.81,106.77,241.68,107.12,241.78,107.2Z" style="fill:#263238"></path><path d="M259.29,106a1.44,1.44,0,0,0,1.54,1.31,1.39,1.39,0,0,0,1.35-1.46,1.45,1.45,0,0,0-1.54-1.31A1.39,1.39,0,0,0,259.29,106Z" style="fill:#263238"></path><path d="M257.07,105.86c.2.17,1.21-.75,2.76-.91s2.77.49,2.92.28-.14-.41-.68-.72a4,4,0,0,0-2.36-.46,3.85,3.85,0,0,0-2.17,1C257.1,105.43,257,105.79,257.07,105.86Z" style="fill:#263238"></path><path d="M252.66,118a9.91,9.91,0,0,0-2.57-.19c-.4,0-.78,0-.88-.3a2.07,2.07,0,0,1,.14-1.2c.27-1,.56-2.05.85-3.15,1.17-4.47,2-8.13,1.8-8.17s-1.28,3.54-2.45,8c-.28,1.1-.55,2.15-.8,3.15a2.3,2.3,0,0,0,0,1.58,1,1,0,0,0,.71.51,2.74,2.74,0,0,0,.69,0A10.72,10.72,0,0,0,252.66,118Z" style="fill:#263238"></path><path d="M257.34,118.56c-.25,0-.07,1.7-1.39,3s-3.13,1.36-3.11,1.59.43.29,1.19.23a4.22,4.22,0,0,0,2.61-1.24,3.64,3.64,0,0,0,1.06-2.54C257.69,118.94,257.46,118.54,257.34,118.56Z" style="fill:#263238"></path><path d="M256,99.82c.2.41,1.73,0,3.57.07s3.37.37,3.58,0c.08-.19-.21-.56-.85-.91a6.05,6.05,0,0,0-2.72-.64,5.94,5.94,0,0,0-2.72.62C256.24,99.26,255.94,99.63,256,99.82Z" style="fill:#263238"></path><path d="M241.87,102.65c.31.32,1.34-.16,2.63-.32s2.4,0,2.61-.41c.09-.19-.12-.52-.63-.81a3.81,3.81,0,0,0-4.22.59C241.85,102.11,241.73,102.49,241.87,102.65Z" style="fill:#263238"></path><path d="M274.07,109.43c.17-.1,6.73-2.8,7.24,4.13s-6.55,6-6.58,5.82S274.07,109.43,274.07,109.43Z" style="fill:#ffbe9d"></path><path d="M276.66,116.6s.12.07.33.15a1.17,1.17,0,0,0,.91,0,3,3,0,0,0,1.18-2.78,4,4,0,0,0-.47-1.7,1.39,1.39,0,0,0-1-.86.61.61,0,0,0-.69.38c-.08.2,0,.34-.06.35s-.16-.1-.12-.39a.77.77,0,0,1,.24-.46.92.92,0,0,1,.65-.22,1.69,1.69,0,0,1,1.34,1,4,4,0,0,1,.56,1.9c.06,1.4-.55,2.76-1.53,3.12a1.27,1.27,0,0,1-1.12-.1C276.68,116.77,276.63,116.61,276.66,116.6Z" style="fill:#eb996e"></path><path d="M236.72,100.6a14.67,14.67,0,0,0,12.65-4.3c2.24-2.34,3.81-5.54,6.79-6.81a8.24,8.24,0,0,1,6.37.19,15.81,15.81,0,0,1,5.22,3.86c-1.41,5.34.52,10.93,2.41,16.12a2.75,2.75,0,0,0,1,1.51c.88.54,2.05-.08,2.68-.9a8.56,8.56,0,0,0,1.4-4.7A28.66,28.66,0,0,0,274,94.37a19.48,19.48,0,0,0-6.36-9.2,18.41,18.41,0,0,0-13.37-3.48,22.63,22.63,0,0,0-12.55,6A13.3,13.3,0,0,0,238,93.08" style="fill:#263238"></path><path d="M305.3,159.5l2.26,11.29s12.22,1.5,12.84,3.54l-21.49,6.29-4.47-18.57Z" style="fill:#455a64"></path><g style="opacity:0.6000000000000001"><path d="M300.61,171.44a.92.92,0,0,0-.37,1.16.88.88,0,0,0,1.15.38,1,1,0,0,0,.38-1.23.91.91,0,0,0-1.23-.26" style="fill:#fff"></path></g><g style="opacity:0.6000000000000001"><path d="M298.91,180.62l-.51-1.94,20.88-5.25s1.07.2,1.12.9Z" style="fill:#fff"></path></g><path d="M307.88,170.6c0,.1-.5.28-.94.74s-.61,1-.72,1-.09-.67.45-1.22S307.88,170.49,307.88,170.6Z" style="fill:#263238"></path><path d="M310.38,171c.05.09-.36.38-.62.92s-.24,1-.35,1.05-.32-.56,0-1.22S310.36,170.9,310.38,171Z" style="fill:#263238"></path><path d="M312.33,173.42c-.1,0-.37-.45-.23-1.1s.57-1,.64-.91-.17.46-.27,1S312.43,173.38,312.33,173.42Z" style="fill:#263238"></path><path d="M307.08,168.08c0,.11-.54.08-1.13.26s-1,.48-1.09.41.28-.57,1-.77S307.11,168,307.08,168.08Z" style="fill:#263238"></path><path d="M306.59,165.81a2.09,2.09,0,0,1-1.09.26,5.46,5.46,0,0,1-1.23-.08c-.22-.05-.46-.11-.7-.19a1.4,1.4,0,0,1-.39-.17.48.48,0,0,1-.18-.56.59.59,0,0,1,.41-.35,1.57,1.57,0,0,1,.42,0,4.3,4.3,0,0,1,.73.07,4,4,0,0,1,1.16.42c.61.35.88.7.85.73s-.37-.23-1-.49a4.36,4.36,0,0,0-1.1-.31,3.64,3.64,0,0,0-.67,0c-.25,0-.44,0-.48.16s0,.06.06.11a1,1,0,0,0,.28.13,5.46,5.46,0,0,0,.66.19,6.61,6.61,0,0,0,1.14.16A7.08,7.08,0,0,1,306.59,165.81Z" style="fill:#263238"></path><path d="M306.48,166a1.88,1.88,0,0,1-.53-1,3.47,3.47,0,0,1-.14-1.22,3.83,3.83,0,0,1,.12-.73.94.94,0,0,1,.57-.71.5.5,0,0,1,.52.19,1.62,1.62,0,0,1,.21.38,2.42,2.42,0,0,1,.17.73,2.57,2.57,0,0,1-.19,1.23c-.3.67-.71.9-.73.86a5.93,5.93,0,0,0,.47-1,2.58,2.58,0,0,0,.11-1.1,2.46,2.46,0,0,0-.17-.63c-.09-.22-.22-.39-.3-.34s-.25.24-.3.44a3.21,3.21,0,0,0-.13.66,4.09,4.09,0,0,0,0,1.13C306.33,165.6,306.54,166,306.48,166Z" style="fill:#263238"></path><path d="M278.28,142.4l-.6-1.41c-.64-1.52,5.06-13.5,13.6-15.21,3.63-.72,6.88,1.34,9.45,4.05a24,24,0,0,1,6.41,15.29L308.33,168l-12.51,2.06s-7.95-26.71-8.5-26.85S278.28,142.4,278.28,142.4Z" style="fill:#263238"></path><path d="M294.84,125.93a11.26,11.26,0,0,0-3.47.14,17.07,17.07,0,0,0-7.22,4.17,24.53,24.53,0,0,0-5.12,6.68c-1,1.91-1.55,3.17-1.63,3.14a3.2,3.2,0,0,1,.27-.92,25.85,25.85,0,0,1,1-2.39,22.29,22.29,0,0,1,5.1-6.89,16.28,16.28,0,0,1,7.49-4.15,7.28,7.28,0,0,1,2.62,0A2.54,2.54,0,0,1,294.84,125.93Z" style="fill:#455a64"></path><path d="M295.82,170.06c-.14.05-2.49-7.05-5.25-15.83s-4.88-16-4.75-16,2.49,7.05,5.25,15.84S296,170,295.82,170.06Z" style="fill:#455a64"></path><path d="M220.6,155.26l-3.86,11.62s-13.11,0-14,2.06l21.88,9.45,7.14-19Z" style="fill:#455a64"></path><g style="opacity:0.6000000000000001"><path d="M224,168.48a1,1,0,0,1,.25,1.27A.94.94,0,0,1,223,170a1,1,0,0,1-.25-1.34,1,1,0,0,1,1.34-.12" style="fill:#fff"></path></g><g style="opacity:0.6000000000000001"><path d="M224.59,178.39l.79-2L204,168.14s-1.15.06-1.3.8Z" style="fill:#fff"></path></g><path d="M216.42,166.63c0,.11.49.37.89.91s.52,1.12.64,1.11.19-.69-.31-1.35S216.44,166.53,216.42,166.63Z" style="fill:#263238"></path><path d="M213.73,166.73c-.07.1.33.46.53,1.05s.13,1.13.24,1.16.4-.55.14-1.29S213.77,166.63,213.73,166.73Z" style="fill:#263238"></path><path d="M211.36,169c.09.06.44-.43.39-1.13s-.48-1.12-.56-1.05.12.51.15,1.09S211.26,169,211.36,169Z" style="fill:#263238"></path><path d="M217.59,164.08c0,.12.57.15,1.17.43s1,.64,1.09.57-.22-.64-.93-.94S217.57,164,217.59,164.08Z" style="fill:#263238"></path><path d="M218.42,161.75c0,.05.38.27,1.11.41a5.27,5.27,0,0,0,1.3.08,7.06,7.06,0,0,0,.77-.1A1.43,1.43,0,0,0,222,162a.5.5,0,0,0,.27-.56.66.66,0,0,0-.38-.43,1.64,1.64,0,0,0-.44-.09,3.51,3.51,0,0,0-.79,0,4,4,0,0,0-1.27.29c-.7.28-1,.62-1,.66s.42-.19,1.09-.39a4.5,4.5,0,0,1,1.2-.19,3.56,3.56,0,0,1,.72,0c.25,0,.46.1.48.23s0,.06-.07.11a1.21,1.21,0,0,1-.32.1,6.75,6.75,0,0,1-.72.12,6.36,6.36,0,0,1-1.23,0A8.35,8.35,0,0,0,218.42,161.75Z" style="fill:#263238"></path><path d="M218.5,162s.39-.28.69-1a3.94,3.94,0,0,0,.31-1.27,5.32,5.32,0,0,0,0-.79,1,1,0,0,0-.51-.82.57.57,0,0,0-.58.13,1.57,1.57,0,0,0-.26.37,2.45,2.45,0,0,0-.28.75,2.78,2.78,0,0,0,0,1.33c.22.74.63,1,.65,1s-.24-.39-.37-1.07a2.81,2.81,0,0,1,0-1.18,2.27,2.27,0,0,1,.26-.63c.12-.23.28-.38.36-.33s.23.29.25.51a3.84,3.84,0,0,1-.14,1.9C218.71,161.56,218.45,161.92,218.5,162Z" style="fill:#263238"></path><path d="M252,139.61l-.22-2.36c-6-.64-10-4-11.18-8.95a28.32,28.32,0,0,0-8,2.85c-9.62,5.22-8.37,4.58-8.37,4.58a12.74,12.74,0,0,0-4.33,7.07l-4.63,20.88,15.46,6.38,8.32-23.22,13-3.14A25.25,25.25,0,0,1,252,139.61Z" style="fill:#263238"></path><path d="M241.05,138.65a5.32,5.32,0,0,1-.25,1.27c-.19.8-.5,2-.89,3.39-.79,2.86-2,6.79-3.4,11.08s-2.85,8.13-3.94,10.89c-.54,1.38-1,2.49-1.33,3.25a6.16,6.16,0,0,1-.56,1.17,6.2,6.2,0,0,1,.37-1.24c.32-.88.71-2,1.17-3.31,1-2.79,2.36-6.64,3.8-10.93s2.66-8.18,3.54-11l1.05-3.35A6.39,6.39,0,0,1,241.05,138.65Z" style="fill:#455a64"></path><path d="M244.07,141.32a7.93,7.93,0,0,1-5.2,5.58,35.87,35.87,0,0,0,2.93-2.48C243.25,142.88,243.92,141.26,244.07,141.32Z" style="fill:#455a64"></path></g><g id="freepik--Plants--inject-8"><path d="M441.71,451.11a16.17,16.17,0,0,1,10-1.22,8.36,8.36,0,0,1,4.94,2.21c1.23,1.36,1.47,3.76.05,4.93a4.72,4.72,0,0,1-3.11.79c-2.65,0-5.58-.5-7.69,1.09-1.21.91-2,2.42-3.45,2.87a3.42,3.42,0,0,1-3.75-1.67,5.86,5.86,0,0,1-.42-4.3A6.56,6.56,0,0,1,441.71,451.11Z" style="fill:#93C5FD"></path><path d="M434.74,437.66c1.86,2.65,5.48,1.77,7.15.15s2.39-4,3-6.21c1.48-5.12,3-10.49,1.87-15.7a8.77,8.77,0,0,0-2-4.27,4.55,4.55,0,0,0-4.32-1.44c-1.82.48-3,2.27-3.77,4a37.45,37.45,0,0,0-3.7,16.07c0,2.59.29,5.3,1.75,7.44" style="fill:#93C5FD"></path><path d="M429.64,441.47a9.7,9.7,0,0,0,1.5-8.9,17.19,17.19,0,0,0-5.27-7.64,28.46,28.46,0,0,0-9.43-5.56,10,10,0,0,0-4.24-.72,4.43,4.43,0,0,0-3.56,2.15c-1,1.89,0,4.19,1,6.06a72.09,72.09,0,0,0,6.2,9.44c1.86,2.39,4,4.75,6.81,5.84s5.77.95,7.28-1" style="fill:#93C5FD"></path><path d="M434.62,477.73a6.14,6.14,0,0,0,.16-1.21q.14-1.32.33-3.3a45.65,45.65,0,0,1,.74-4.83,37,37,0,0,1,1.75-5.7,21.24,21.24,0,0,1,2.91-5.16,10.88,10.88,0,0,1,3.69-3.06,9.88,9.88,0,0,1,3.1-1,5.12,5.12,0,0,0,1.2-.18,6.13,6.13,0,0,0-1.23,0,9.36,9.36,0,0,0-3.23.84,10.84,10.84,0,0,0-3.88,3.09,20.29,20.29,0,0,0-3,5.26,34.89,34.89,0,0,0-1.74,5.8,40.18,40.18,0,0,0-.65,4.89c-.1,1.4-.14,2.53-.16,3.32A4.91,4.91,0,0,0,434.62,477.73Z" style="fill:#263238"></path><path d="M434.84,475.19a2.2,2.2,0,0,0,0-.56c0-.42,0-.95,0-1.6,0-1.39,0-3.4.07-5.89.13-5,.55-10.31,1.38-17.85.78-7.08,1.83-15.33,2.94-20.69.24-1.22.48-2.32.7-3.28s.4-1.79.58-2.47l.37-1.55a2.27,2.27,0,0,0,.1-.56,2.45,2.45,0,0,0-.19.53c-.13.4-.28.91-.47,1.53s-.42,1.49-.66,2.45-.51,2.06-.77,3.27a182,182,0,0,0-3.1,19.21c-.82,7.55-1.2,14.43-1.23,19.41,0,2.49,0,4.5.09,5.89,0,.65.07,1.18.1,1.6A2.73,2.73,0,0,0,434.84,475.19Z" style="fill:#263238"></path><path d="M434.88,461.93a11.38,11.38,0,0,0,0-1.68c-.07-1.07-.21-2.62-.52-4.53a60.4,60.4,0,0,0-1.47-6.6,54.41,54.41,0,0,0-2.76-7.82A41.73,41.73,0,0,0,422,428.68a21.41,21.41,0,0,0-1.91-1.78c-.29-.24-.55-.49-.82-.69l-.74-.51a11.25,11.25,0,0,0-1.4-.9,50.47,50.47,0,0,1,4.61,4.12,43.75,43.75,0,0,1,7.91,12.58,61.89,61.89,0,0,1,2.78,7.74c.72,2.43,1.2,4.66,1.57,6.54s.54,3.42.66,4.49A9.64,9.64,0,0,0,434.88,461.93Z" style="fill:#263238"></path><path d="M90.56,450.19c10.7-11.09,10.37-27.72,7-42.08-.55-2.4-.78-5-2.34-6.89s-4.53-2.81-6.49-1.37c-1.63,1.19-2,3.43-2.67,5.35a14.36,14.36,0,0,1-4.6,6.51c-1.38,1.1-3.18,2-4.86,1.42-2.31-.75-3.12-3.57-3.57-6q-1.27-6.72-2.54-13.43a23,23,0,0,0-2.12-7,7.61,7.61,0,0,0-5.66-4.12c-2.41-.19-5,1.68-5,4.12a23.8,23.8,0,0,0,.51,3,2.58,2.58,0,0,1-1,2.67c-.9.47-2,0-2.85-.59A32.55,32.55,0,0,1,47,384.28a45.47,45.47,0,0,0-7.09-7.88c-2.76-2.2-6.28-3.69-9.76-3.21s-6.72,3.31-6.93,6.86,2.44,6.6,5.12,8.92a54.41,54.41,0,0,0,13.23,8.45,4.46,4.46,0,0,1,2.26,1.64c.84,1.5-.37,3.38-1.85,4.22-1.67,1-3.65,1.14-5.47,1.73s-3.7,1.8-4.06,3.71c-.5,2.65,2.05,4.82,4.4,6.11A46.8,46.8,0,0,0,52,420a15.52,15.52,0,0,1,5.53,1.47c1.67,1,3,2.95,2.42,4.81s-2.63,2.83-4.55,2.85-3.77-.66-5.66-1c-3.54-.6-7.76.46-9.31,3.72a7.73,7.73,0,0,0,.5,6.87,17.71,17.71,0,0,0,4.8,5.22A47.07,47.07,0,0,0,68.1,454c8.17,1.16,15.4.49,22.46-3.78" style="fill:#93C5FD"></path><path d="M95.33,471.53c-.34-3.26-.83-5-2.49-10.66a107,107,0,0,0-7.79-19A218.19,218.19,0,0,0,72,420.37l-3.72-5.45c-1.22-1.79-2.43-3.56-3.73-5.22a108.6,108.6,0,0,0-8-9.12c-2.68-2.78-5.33-5.32-7.81-7.67s-4.86-4.5-7.1-6.37a87.22,87.22,0,0,0-11.22-8c-1.39-.84-2.49-1.46-3.25-1.86l-.86-.46a1.21,1.21,0,0,0-.3-.14,1.53,1.53,0,0,0,.28.18l.84.5c.74.43,1.82,1.07,3.2,1.93a90.93,90.93,0,0,1,11.1,8.1c2.22,1.88,4.57,4,7,6.39s5.11,4.91,7.77,7.69A112.93,112.93,0,0,1,64.2,410c1.28,1.65,2.48,3.41,3.71,5.2s2.45,3.62,3.71,5.46a226.16,226.16,0,0,1,13.07,21.42A110.07,110.07,0,0,1,92.54,461c1.69,5.6,2.23,7.34,2.62,10.59" style="fill:#263238"></path><path d="M64.41,409.7a3.9,3.9,0,0,0,0-1.07c0-.68,0-1.68-.11-2.91-.13-2.45-.42-5.84-.76-9.57s-.58-7.11-.67-9.57c0-1.22-.07-2.21-.08-2.9a5.37,5.37,0,0,0-.07-1.07,4.23,4.23,0,0,0-.11,1.07c0,.68-.06,1.68,0,2.91,0,2.46.2,5.86.54,9.6s.65,7,.88,9.55c.1,1.15.19,2.12.25,2.9A4.84,4.84,0,0,0,64.41,409.7Z" style="fill:#263238"></path><path d="M32.43,410a6.58,6.58,0,0,0,1.26-.09c.8-.09,2-.22,3.41-.33,2.89-.25,6.89-.45,11.31-.48s8.42.13,11.32.32c1.44.09,2.61.19,3.42.25a6.64,6.64,0,0,0,1.26.06,6.62,6.62,0,0,0-1.24-.23c-.8-.12-2-.27-3.42-.4-2.89-.27-6.91-.48-11.35-.45a111.17,111.17,0,0,0-11.33.61c-1.44.16-2.61.33-3.41.47A7.16,7.16,0,0,0,32.43,410Z" style="fill:#263238"></path><path d="M84.56,441.36s.06-.14.14-.41.18-.74.31-1.22c.26-1.06.6-2.61,1-4.52.8-3.83,1.73-9.15,2.69-15s1.84-11.21,2.55-15.05c.36-1.86.65-3.4.86-4.54.09-.49.17-.9.23-1.24a1.28,1.28,0,0,0,0-.43,2,2,0,0,0-.14.41c-.08.33-.18.74-.31,1.22-.26,1.06-.6,2.61-1,4.52-.8,3.83-1.73,9.15-2.69,15s-1.83,11.21-2.55,15c-.36,1.86-.65,3.4-.86,4.54-.09.49-.17.9-.23,1.24A1.74,1.74,0,0,0,84.56,441.36Z" style="fill:#263238"></path><path d="M41,436.17l.44.09,1.27.16,4.67.57c3.94.47,9.38,1.2,15.39,2s11.46,1.48,15.41,1.88c2,.19,3.58.34,4.69.42l1.27.08a1.4,1.4,0,0,0,.45,0,2.28,2.28,0,0,0-.44-.08l-1.27-.17-4.67-.56c-3.94-.48-9.38-1.2-15.39-2s-11.45-1.48-15.41-1.87c-2-.2-3.57-.35-4.68-.42l-1.28-.09A1.43,1.43,0,0,0,41,436.17Z" style="fill:#263238"></path><path d="M109.5,452.1c-7.57-9.18-6.31-21.94-2.9-32.79.57-1.81.91-3.79,2.22-5.15s3.65-1.89,5.07-.67c1.18,1,1.33,2.76,1.73,4.28a11,11,0,0,0,3.15,5.28,4.19,4.19,0,0,0,3.65,1.38c1.82-.43,2.61-2.55,3.11-4.37l2.76-10.18a17.4,17.4,0,0,1,2.05-5.25,5.83,5.83,0,0,1,4.6-2.82,3.54,3.54,0,0,1,3.59,3.46,16.56,16.56,0,0,1-.58,2.28,2,2,0,0,0,.62,2.11,2.27,2.27,0,0,0,2.23-.28A24.87,24.87,0,0,0,147,404a34.26,34.26,0,0,1,5.92-5.63,10.24,10.24,0,0,1,7.7-1.89c2.64.58,5,3,4.92,5.69s-2.27,4.93-4.48,6.55a41.94,41.94,0,0,1-10.68,5.71,3.37,3.37,0,0,0-1.83,1.12c-.74,1.1.08,2.63,1.16,3.36a22.34,22.34,0,0,0,4.11,1.65c1.37.56,2.73,1.62,2.9,3.1.22,2.07-1.87,3.58-3.75,4.43A35.93,35.93,0,0,1,141,431.21a12.24,12.24,0,0,0-4.34.8,3.49,3.49,0,0,0-2.14,3.55,3.55,3.55,0,0,0,3.32,2.47,26.33,26.33,0,0,0,4.41-.42c2.76-.25,5.94.82,6.94,3.42a6,6,0,0,1-.8,5.26,13.71,13.71,0,0,1-4,3.72,36.18,36.18,0,0,1-17.83,6.34c-6.35.4-11.87-.55-17-4.25" style="fill:#93C5FD"></path><g style="opacity:0.4"><path d="M109.5,452.1c-7.57-9.18-6.31-21.94-2.9-32.79.57-1.81.91-3.79,2.22-5.15s3.65-1.89,5.07-.67c1.18,1,1.33,2.76,1.73,4.28a11,11,0,0,0,3.15,5.28,4.19,4.19,0,0,0,3.65,1.38c1.82-.43,2.61-2.55,3.11-4.37l2.76-10.18a17.4,17.4,0,0,1,2.05-5.25,5.83,5.83,0,0,1,4.6-2.82,3.54,3.54,0,0,1,3.59,3.46,16.56,16.56,0,0,1-.58,2.28,2,2,0,0,0,.62,2.11,2.27,2.27,0,0,0,2.23-.28A24.87,24.87,0,0,0,147,404a34.26,34.26,0,0,1,5.92-5.63,10.24,10.24,0,0,1,7.7-1.89c2.64.58,5,3,4.92,5.69s-2.27,4.93-4.48,6.55a41.94,41.94,0,0,1-10.68,5.71,3.37,3.37,0,0,0-1.83,1.12c-.74,1.1.08,2.63,1.16,3.36a22.34,22.34,0,0,0,4.11,1.65c1.37.56,2.73,1.62,2.9,3.1.22,2.07-1.87,3.58-3.75,4.43A35.93,35.93,0,0,1,141,431.21a12.24,12.24,0,0,0-4.34.8,3.49,3.49,0,0,0-2.14,3.55,3.55,3.55,0,0,0,3.32,2.47,26.33,26.33,0,0,0,4.41-.42c2.76-.25,5.94.82,6.94,3.42a6,6,0,0,1-.8,5.26,13.71,13.71,0,0,1-4,3.72,36.18,36.18,0,0,1-17.83,6.34c-6.35.4-11.87-.55-17-4.25"></path></g><path d="M163.56,399s-.07.05-.22.12l-.67.34c-.6.28-1.47.71-2.58,1.29a71.35,71.35,0,0,0-9,5.56c-1.82,1.31-3.75,2.83-5.8,4.49s-4.22,3.47-6.43,5.44a88.23,88.23,0,0,0-6.65,6.52c-1.08,1.2-2.11,2.48-3.16,3.78l-3.18,4a172.81,172.81,0,0,0-11.34,15.69,83.69,83.69,0,0,0-7.17,14.07,62.11,62.11,0,0,0-3,10.21c-.24,1.24-.41,2.21-.5,2.86,0,.32-.08.56-.11.75a.83.83,0,0,1-.06.25,2.49,2.49,0,0,1,0-.26c0-.18,0-.43.08-.75.07-.66.22-1.63.44-2.87a59.74,59.74,0,0,1,2.93-10.28A83,83,0,0,1,114.23,446a169,169,0,0,1,11.34-15.73c1.07-1.35,2.14-2.67,3.18-4s2.09-2.59,3.18-3.79a83.31,83.31,0,0,1,6.69-6.53c2.22-2,4.41-3.77,6.46-5.43s4-3.16,5.84-4.46a66.84,66.84,0,0,1,9.11-5.48c1.12-.56,2-1,2.61-1.24l.68-.3Z" style="fill:#263238"></path><path d="M132,422.54a4,4,0,0,1,0-.83c0-.53.13-1.29.26-2.23.24-1.88.67-4.47,1.16-7.31s.87-5.44,1.09-7.32c.11-.94.19-1.7.24-2.23a3.09,3.09,0,0,1,.12-.81,3.71,3.71,0,0,1,0,.82c0,.53,0,1.3-.13,2.24-.16,1.9-.51,4.5-1,7.35s-.92,5.35-1.26,7.3c-.15.87-.27,1.61-.37,2.21A3.09,3.09,0,0,1,132,422.54Z" style="fill:#263238"></path><path d="M156.61,424.67a6.83,6.83,0,0,1-1-.15c-.62-.12-1.51-.28-2.61-.46-2.2-.36-5.27-.76-8.66-1.05s-6.49-.41-8.72-.43c-1.12,0-2,0-2.65,0a6.28,6.28,0,0,1-1,0,4.94,4.94,0,0,1,1-.11c.63,0,1.54-.09,2.66-.1,2.24,0,5.34.05,8.75.33a84.42,84.42,0,0,1,8.67,1.16c1.11.2,2,.41,2.6.56A4.53,4.53,0,0,1,156.61,424.67Z" style="fill:#263238"></path><path d="M114.64,445.67a1.3,1.3,0,0,1-.08-.33c0-.26-.1-.57-.17-1-.14-.83-.31-2-.5-3.53-.38-3-.78-7.14-1.16-11.72s-.74-8.73-1.06-11.72c-.16-1.46-.29-2.65-.39-3.54,0-.39-.07-.71-.1-1a1.26,1.26,0,0,1,0-.34,1.3,1.3,0,0,1,.08.33l.17,1c.14.83.31,2,.5,3.53.38,3,.78,7.14,1.16,11.72s.74,8.73,1.06,11.72c.16,1.46.29,2.65.39,3.54,0,.39.07.71.1,1A1.26,1.26,0,0,1,114.64,445.67Z" style="fill:#263238"></path><path d="M148.47,444.29s-.12,0-.35,0l-1,.05-3.63.15c-3.06.13-7.28.36-11.95.62s-8.9.44-12,.51c-1.53,0-2.77.05-3.63,0h-1l-.34,0a1.18,1.18,0,0,1,.34,0l1-.05,3.62-.16c3.06-.13,7.29-.35,11.95-.61s8.9-.45,12-.52c1.53,0,2.77-.05,3.62,0h1Z" style="fill:#263238"></path><path d="M93.94,317.32c-20.07-5.24-37.61-18.44-47.37-35.64a68.62,68.62,0,0,1-5-56.63C46.77,210.64,56.75,198,61,183.3c4.85-16.63,2-34.29-1-51.3s-6.05-34.62-1.5-51.33,18.87-32.41,37.29-33.6c17.09-1.1,32.87,10.72,40,25.27s7.18,31.22,5.51,47.14-4.91,31.82-3.89,47.79c2.07,32.33,21.45,62.75,19.17,95.06-1.18,16.83-8.15,27.6-20.08,40.25-10.29,10.91-27.39,18.09-42.54,14.74" style="fill:#455a64"></path><path d="M100,477.49c-.18,0-.33-71.61-.33-159.92s.15-159.94.33-159.94.32,71.6.32,159.94S100.16,477.49,100,477.49Z" style="fill:#263238"></path><path d="M99.06,261.44a23.39,23.39,0,0,1-3-2.6c-1.76-1.67-4.15-4-6.67-6.71s-4.84-5.07-6.51-6.81a24.81,24.81,0,0,1-2.62-2.89,23.39,23.39,0,0,1,3,2.6c1.76,1.67,4.15,4,6.67,6.71s4.84,5.07,6.51,6.81A24.81,24.81,0,0,1,99.06,261.44Z" style="fill:#263238"></path><rect x="47.41" y="464.21" width="106.96" height="13.07" style="fill:#263238"></rect><path d="M101,194.44a22.11,22.11,0,0,0,6.53-2.72,17.87,17.87,0,0,0,5.24-5.27,17.55,17.55,0,0,0,2.85-8.36l0-.29.37.32a14.06,14.06,0,0,0-7.87,4.33,29.17,29.17,0,0,0-4.39,5.89c-1,1.8-1.79,3.32-2.29,4.37a10.91,10.91,0,0,1-.82,1.62,9.38,9.38,0,0,1,.58-1.71,39.77,39.77,0,0,1,2.13-4.48,28.37,28.37,0,0,1,4.35-6.07,14.45,14.45,0,0,1,8.21-4.55l.41-.06,0,.37,0,.3a18.16,18.16,0,0,1-8.48,13.94,16.91,16.91,0,0,1-4.86,2.07,11.84,11.84,0,0,1-1.43.26A1.46,1.46,0,0,1,101,194.44Z" style="fill:#263238"></path><path d="M101,194.44c-.14-.11,1.87-2.6,4.48-5.57s4.84-5.29,5-5.19-1.87,2.6-4.48,5.57S101.13,194.55,101,194.44Z" style="fill:#263238"></path></g></svg>